<svg xmlns="http://www.w3.org/2000/svg" xmlns:xlink="http://www.w3.org/1999/xlink" width="1074.54" height="840.753" viewBox="0 0 1074.54 840.753">
  <defs>
    <linearGradient id="linear-gradient" x1="0.5" y1="1" x2="0.5" gradientUnits="objectBoundingBox">
      <stop offset="0" stop-color="gray" stop-opacity="0.251"/>
      <stop offset="0.54" stop-color="gray" stop-opacity="0.122"/>
      <stop offset="1" stop-color="gray" stop-opacity="0.102"/>
    </linearGradient>
  </defs>
  <g id="undraw_baby_ja-7-a" transform="translate(0 0.013)">
    <path id="Path_489" data-name="Path 489" d="M402,59.3C431.18,33.27,477,28,518.77,30c131.09,6.52,249.42,69.8,351.78,141.39,37.06,25.91,73.54,53.84,97.59,89.53,49,72.65,34.44,173.29-33.64,233.14-23.17,20.36-51.25,36-80.08,49.81-51.26,24.6-106.57,44.35-164.75,50-41.48,4-83.48.75-124.73-4.84C449.71,573.4,336.6,538.84,241.79,479.72,200.21,453.79,161,421.55,143.88,379.6s-6.17-95.11,36.29-119.94c17.56-10.27,38.56-14.91,59.11-19.27,30.26-6.41,61-12.73,88.3-25.76,28.21-13.46,61.6-39.49,56-69.29C377.6,113.37,372.8,85.3,402,59.3Z" transform="translate(-62.73 -29.63)" fill="#ee7768" opacity="0.1"/>
    <ellipse id="Ellipse_49" data-name="Ellipse 49" cx="133.14" cy="41.68" rx="133.14" ry="41.68" transform="translate(327.79 747.22)" fill="#ee7768" opacity="0.1"/>
    <path id="Path_490" data-name="Path 490" d="M733.95,360.24l4.83,256.72,10.27,1.21-3.87-258.95Z" fill="#f5c5cc"/>
    <path id="Path_491" data-name="Path 491" d="M739.87,355.45l5.51,267.19,3.67-4.47-3.87-258.95Z" fill="none"/>
    <path id="Path_492" data-name="Path 492" d="M709.12,355.41l4.83,256.72,10.27,1.21-3.87-258.95Z" fill="#f5c5cc"/>
    <path id="Path_493" data-name="Path 493" d="M715.04,350.62l5.5,267.19,3.68-4.47-3.87-258.95Z" fill="none"/>
    <path id="Path_494" data-name="Path 494" d="M715.19,341.99l.5,280,10.5-1-4-284.5Z" fill="#cc929b"/>
    <path id="Path_495" data-name="Path 495" d="M425.56,295.24l4.43,232.71,10.27,1.08L436.8,294.3Z" fill="#f5c5cc"/>
    <path id="Path_496" data-name="Path 496" d="M431.49,290.89l5.08,242.2,3.69-4.06L436.8,294.3Z" fill="#cc929b"/>
    <path id="Path_497" data-name="Path 497" d="M447.41,301.13l4.43,232.7,10.27,1.08-3.46-234.72Z" fill="#f5c5cc"/>
    <path id="Path_498" data-name="Path 498" d="M453.34,296.77l5.09,242.2,3.68-4.06-3.46-234.72Z" fill="#cc929b"/>
    <path id="Path_499" data-name="Path 499" d="M468.77,307.51l4.43,232.71,10.27,1.08-3.46-234.72Z" fill="#f5c5cc"/>
    <path id="Path_500" data-name="Path 500" d="M474.7,303.17l5.09,242.19,3.68-4.06-3.46-234.72Z" fill="#cc929b"/>
    <path id="Path_501" data-name="Path 501" d="M489.55,308.81l4.56,240.88,10.27,1.12-3.6-242.96Z" fill="#f5c5cc"/>
    <path id="Path_502" data-name="Path 502" d="M495.47,304.31l5.23,250.7,3.68-4.2-3.6-242.96Z" fill="#cc929b"/>
    <path id="Path_503" data-name="Path 503" d="M512.08,310.69l4.57,240.87,10.27,1.12-3.6-242.96Z" fill="#f5c5cc"/>
    <path id="Path_504" data-name="Path 504" d="M518.01,306.19l5.23,250.69,3.68-4.2-3.6-242.96Z" fill="#cc929b"/>
    <path id="Path_505" data-name="Path 505" d="M534.22,318.56l4.56,240.88,10.27,1.12L545.46,317.6Z" fill="#f5c5cc"/>
    <path id="Path_506" data-name="Path 506" d="M540.14,314.06l5.23,250.7,3.68-4.2L545.46,317.6Z" fill="#cc929b"/>
    <path id="Path_507" data-name="Path 507" d="M559.56,323.76l4.68,247.6,10.27,1.15L570.8,322.77Z" fill="#f5c5cc"/>
    <path id="Path_508" data-name="Path 508" d="M565.48,319.14l5.35,257.69,3.68-4.32L570.8,322.77Z" fill="#cc929b"/>
    <path id="Path_509" data-name="Path 509" d="M581.61,326.39l4.67,247.6,10.28,1.15L592.84,325.4Z" fill="#f5c5cc"/>
    <path id="Path_510" data-name="Path 510" d="M587.53,321.76l5.35,257.7,3.68-4.32L592.84,325.4Z" fill="#cc929b"/>
    <path id="Path_511" data-name="Path 511" d="M604.97,332.99l4.68,247.6,10.27,1.16-3.71-249.74Z" fill="#f5c5cc"/>
    <path id="Path_512" data-name="Path 512" d="M610.9,328.37l5.34,257.7,3.68-4.32-3.71-249.74Z" fill="#cc929b"/>
    <path id="Path_513" data-name="Path 513" d="M405.55,294.83l-.5-14.74,5.2-2.84,372.94,76.49.69,18.71Z" fill="#f5c5cc"/>
    <path id="Path_514" data-name="Path 514" d="M410.25,277.25l374.31,76.43-.38,7.01L405.82,279.66" fill="#cc929b"/>
    <path id="Path_515" data-name="Path 515" d="M425.69,661.67l-10.5,3.82h-10l-.5-394.54,5.5-7.64,5.31-1.56,6.69-1.01Z" fill="#f5c5cc"/>
    <path id="Path_516" data-name="Path 516" d="M425.69,661.67l-10.5,3.82-.65-393.76.96-9.98,6.69-1.01Z" fill="#cc929b"/>
    <path id="Path_517" data-name="Path 517" d="M630.35,340.32l4.68,247.59,10.27,1.16-3.71-249.74Z" fill="#f5c5cc"/>
    <path id="Path_518" data-name="Path 518" d="M636.27,335.69l5.35,257.7,3.68-4.32-3.71-249.74Z" fill="#cc929b"/>
    <path id="Path_519" data-name="Path 519" d="M655.92,344.23l4.77,252.89,10.27,1.18-3.81-255.07Z" fill="#f5c5cc"/>
    <path id="Path_520" data-name="Path 520" d="M661.84,339.51l5.44,263.2,3.68-4.41-3.81-255.07Z" fill="none"/>
    <path id="Path_521" data-name="Path 521" d="M682.25,348.86l4.83,256.72,10.27,1.21-3.86-258.95Z" fill="#f5c5cc"/>
    <path id="Path_522" data-name="Path 522" d="M688.17,344.07l5.51,267.2,3.67-4.48-3.86-258.95Z" fill="#cc929b"/>
    <path id="Path_523" data-name="Path 523" d="M280.19,585.99l-10.5,1L269.2,310.8l-.01-3.81,7-5.5.11,7.66Z" fill="#f5c5cc"/>
    <path id="Path_524" data-name="Path 524" d="M317.19,570.49l-10.5,1-.49-271.68-.01-8.32,7-5.5.16,11.16Z" fill="#f5c5cc"/>
    <path id="Path_525" data-name="Path 525" d="M378.19,545.49l-10.5,1-.48-268.25-.02-11.75,7-5.5.22,15.58Z" fill="#f5c5cc"/>
    <path id="Path_526" data-name="Path 526" d="M404.69,535.49l-10.5,1-.47-261.7-.03-18.3,7-5.5.36,25.42Z" fill="#f5c5cc"/>
    <path id="Path_527" data-name="Path 527" d="M298.69,582.99l-10.5,1-.5-278v-2l7-5.5.07,5.27Z" fill="#f5c5cc"/>
    <path id="Path_528" data-name="Path 528" d="M352.69,557.99l-10.5,1-.49-272.76-.01-7.24,7-5.5.14,10.26Z" fill="#f5c5cc"/>
    <path id="Path_529" data-name="Path 529" d="M335.19,562.99l-10.5,1-.48-271.11-.02-8.89,7-5.5.16,11.58Z" fill="#f5c5cc"/>
    <path id="Path_530" data-name="Path 530" d="M331.72,569.48l-2.5,5.25s-6.5,9.75-5.75,24.75S313,654.23,313,654.23s10.25,4.75,18,4.25,24.5,7.75,24.5,7.75L390.22,677l70.25,16.5s41.25,23,52.5,23,56,15.25,56,15.25S629.47,745,634.22,750,659,761.73,661,762s32.5,3.25,32.5,3.25,35.5,8.25,40.5-.5a45.081,45.081,0,0,0,5.75-16s15.75,3.5,20-1.75,4.5-16.5,9.5-16,25.5,6.75,27.75,4.5,14.25-28.75,22.75-24.75S843,721,843,721l-8.5-86.5-3.75-23.75s-136.25,55.5-141,55.5S331.72,569.48,331.72,569.48Z" transform="translate(-62.73 -29.63)" fill="#ee7768"/>
    <path id="Path_531" data-name="Path 531" d="M830,493.73l-.75,122L687.72,670l-358.5-95.25s-24.25-34.25-1.75-66.25c0,0-29-40,7-66l.89-.21L471.47,409.5,532,420.56l267.45,48.92S825.72,479.23,830,493.73Z" transform="translate(-62.73 -29.63)" fill="#ee7768"/>
    <path id="Path_532" data-name="Path 532" d="M527.22,432.23c-6.75,3.5-55.75,16.25-65.5,24S384.47,470,384.47,470l-7.5,1.5s.5-5-29.25-19.5a37.93,37.93,0,0,1-12.36-9.71L471.47,409.5,532,420.56C532.08,425.35,531.26,430.13,527.22,432.23Z" transform="translate(-62.73 -29.63)" opacity="0.1"/>
    <path id="Path_533" data-name="Path 533" d="M321.47,384s-2.5,48.5,27.25,63S378,466.48,378,466.48l7.5-1.5s-26-29-24.25-34S338,400.73,334.47,399.73,321.47,384,321.47,384Z" transform="translate(-62.73 -29.63)" fill="#ee7768"/>
    <path id="Path_534" data-name="Path 534" d="M322,384.73s-2.5,48.5,27.25,63,29.25,19.5,29.25,19.5l7.5-1.5s-26-29-24.25-34S338.47,401.48,335,400.48,322,384.73,322,384.73Z" transform="translate(-62.73 -29.63)" opacity="0.1"/>
    <path id="Path_535" data-name="Path 535" d="M329,405.23s24,36.25,28.25,37.5S334.72,405.73,329,405.23Z" transform="translate(-62.73 -29.63)" opacity="0.1"/>
    <path id="Path_536" data-name="Path 536" d="M318,377.23s15.5-12.5,17.5-15,24-3.5,24.75-3.5,17.5-10.25,36.25-13.5,26.25-4.75,26.25-4.75,27.5-11.5,29-14,14.25-5.25,30,7,50.5,67.25,50.75,73.25,2.5,17-4.25,20.5-55.75,16.25-65.5,24S385.47,465,385.47,465L360,437.23l-13.5-21.75L324,391.73Z" transform="translate(-62.73 -29.63)" fill="#ee7768"/>
    <path id="Path_537" data-name="Path 537" d="M359.8,593.15s-9.33,2-4,7.33S359.8,593.15,359.8,593.15Z" transform="translate(-62.73 -29.63)" opacity="0.1"/>
    <path id="Path_538" data-name="Path 538" d="M392.47,603.82s-10,12-8,15.33S392.47,603.82,392.47,603.82Z" transform="translate(-62.73 -29.63)" opacity="0.1"/>
    <path id="Path_539" data-name="Path 539" d="M451.14,619.15s-10,12-8,15.33S451.14,619.15,451.14,619.15Z" transform="translate(-62.73 -29.63)" opacity="0.1"/>
    <path id="Path_540" data-name="Path 540" d="M522.47,639.15s-10,12-8,15.33S522.47,639.15,522.47,639.15Z" transform="translate(-62.73 -29.63)" opacity="0.1"/>
    <path id="Path_541" data-name="Path 541" d="M618.47,663.15s-10,12-8,15.33S618.47,663.15,618.47,663.15Z" transform="translate(-62.73 -29.63)" opacity="0.1"/>
    <path id="Path_542" data-name="Path 542" d="M421.14,607.15s-10,12-8,15.33S421.14,607.15,421.14,607.15Z" transform="translate(-62.73 -29.63)" opacity="0.1"/>
    <path id="Path_543" data-name="Path 543" d="M560.47,649.15s-10,12-8,15.33S560.47,649.15,560.47,649.15Z" transform="translate(-62.73 -29.63)" opacity="0.1"/>
    <path id="Path_544" data-name="Path 544" d="M589.8,658.48s-10,12-8,15.34S589.8,658.48,589.8,658.48Z" transform="translate(-62.73 -29.63)" opacity="0.1"/>
    <path id="Path_545" data-name="Path 545" d="M477.14,627.15s-10,12-8,15.33S477.14,627.15,477.14,627.15Z" transform="translate(-62.73 -29.63)" opacity="0.1"/>
    <path id="Path_546" data-name="Path 546" d="M729.14,699.82l10.58,48.91S739.8,714.48,729.14,699.82Z" transform="translate(-62.73 -29.63)" opacity="0.1"/>
    <path id="Path_547" data-name="Path 547" d="M761.8,707.15,769.22,731S768.47,721.82,761.8,707.15Z" transform="translate(-62.73 -29.63)" opacity="0.1"/>
    <path id="Path_548" data-name="Path 548" d="M797,735.48s-15.83-57.66-19.17-61.66S787.47,731.82,797,735.48Z" transform="translate(-62.73 -29.63)" opacity="0.1"/>
    <path id="Path_549" data-name="Path 549" d="M815.8,708.48s-18.66-32.66-11.33-38.66S815.8,708.48,815.8,708.48Z" transform="translate(-62.73 -29.63)" opacity="0.1"/>
    <path id="Path_550" data-name="Path 550" d="M327.47,508.48,689.8,589.82l139.34-40.67L688.47,585.82S338.47,505.15,327.47,508.48Z" transform="translate(-62.73 -29.63)" opacity="0.1"/>
    <path id="Path_551" data-name="Path 551" d="M275.69,390.49l.5,232.75,10.25,1.25.5-234.75Z" fill="#f5c5cc"/>
    <path id="Path_552" data-name="Path 552" d="M281.69,386.24l1,242.25,3.75-4,.5-234.75Z" fill="#cc929b"/>
    <path id="Path_553" data-name="Path 553" d="M297.44,396.74l.5,232.75,10.25,1.25.5-234.75Z" fill="#f5c5cc"/>
    <path id="Path_554" data-name="Path 554" d="M303.44,392.49l1,242.25,3.75-4,.5-234.75Z" fill="#cc929b"/>
    <path id="Path_555" data-name="Path 555" d="M318.69,403.49l.5,232.75,10.25,1.25.5-234.75Z" fill="#f5c5cc"/>
    <path id="Path_556" data-name="Path 556" d="M324.69,399.24l1,242.25,3.75-4,.5-234.75Z" fill="#cc929b"/>
    <path id="Path_557" data-name="Path 557" d="M339.44,405.14l.5,240.92,10.25,1.29.5-242.99Z" fill="#f5c5cc"/>
    <path id="Path_558" data-name="Path 558" d="M345.44,400.74l1,250.75,3.75-4.14.5-242.99Z" fill="#cc929b"/>
    <path id="Path_559" data-name="Path 559" d="M361.94,407.39l.5,240.92,10.25,1.29.5-242.99Z" fill="#f5c5cc"/>
    <path id="Path_560" data-name="Path 560" d="M367.94,402.99l1,250.75,3.75-4.14.5-242.99Z" fill="#cc929b"/>
    <path id="Path_561" data-name="Path 561" d="M383.94,415.64l.5,240.92,10.25,1.29.5-242.99Z" fill="#f5c5cc"/>
    <path id="Path_562" data-name="Path 562" d="M389.94,411.24l1,250.75,3.75-4.14.5-242.99Z" fill="#cc929b"/>
    <path id="Path_563" data-name="Path 563" d="M409.19,421.26l.5,247.64,10.25,1.33.5-249.77Z" fill="none"/>
    <path id="Path_564" data-name="Path 564" d="M415.19,416.74l1,257.75,3.75-4.26.5-249.77Z" fill="#cc929b"/>
    <path id="Path_565" data-name="Path 565" d="M431.19,424.26l.5,247.64,10.25,1.33.5-249.77Z" fill="#f5c5cc"/>
    <path id="Path_566" data-name="Path 566" d="M437.19,419.74l1,257.75,3.75-4.26.5-249.77Z" fill="#cc929b"/>
    <path id="Path_567" data-name="Path 567" d="M454.44,431.26l.5,247.64,10.25,1.33.5-249.77Z" fill="#f5c5cc"/>
    <path id="Path_568" data-name="Path 568" d="M460.44,426.74l1,257.75,3.75-4.26.5-249.77Z" fill="#cc929b"/>
    <path id="Path_569" data-name="Path 569" d="M479.69,439.01l.5,247.64,10.25,1.33.5-249.77Z" fill="#f5c5cc"/>
    <path id="Path_570" data-name="Path 570" d="M485.69,434.49l1,257.75,3.75-4.26.5-249.77Z" fill="#cc929b"/>
    <path id="Path_571" data-name="Path 571" d="M505.19,443.36l.5,252.92,10.25,1.36.5-255.1Z" fill="#f5c5cc"/>
    <path id="Path_572" data-name="Path 572" d="M511.19,438.74l1,263.25,3.75-4.35.5-255.1Z" fill="#cc929b"/>
    <path id="Path_573" data-name="Path 573" d="M531.44,448.43l.5,256.77,10.25,1.38.5-258.98Z" fill="#cc929b"/>
    <path id="Path_574" data-name="Path 574" d="M537.44,443.74l1,267.25,3.75-4.41.5-258.98Z" fill="none"/>
    <path id="Path_575" data-name="Path 575" d="M558.19,455.43l.5,256.77,10.25,1.38.5-258.98Z" fill="#f5c5cc"/>
    <path id="Path_576" data-name="Path 576" d="M564.19,450.74l1,267.25,3.75-4.41.5-258.98Z" fill="#cc929b"/>
    <path id="Path_577" data-name="Path 577" d="M582.94,460.68l.5,256.77,10.25,1.38.5-258.98Z" fill="#cc929b"/>
    <path id="Path_578" data-name="Path 578" d="M588.94,455.99l1,267.25,3.75-4.41.5-258.98Z" fill="none"/>
    <path id="Path_579" data-name="Path 579" d="M262.19,668.49l-10.5,4h-10l-.5-367,5.5-8,5.31-1.63,7.69-2.37Z" fill="#f5c5cc"/>
    <path id="Path_580" data-name="Path 580" d="M262.19,668.49l-10.5,4-.65-366.19.96-10.44,7.69-2.37Z" fill="#cc929b"/>
    <circle id="Ellipse_50" data-name="Ellipse 50" cx="12" cy="12" r="12" transform="translate(240.69 659.99)" fill="#40414d"/>
    <path id="Path_581" data-name="Path 581" d="M799.19,724.67l-10.5,3.82h-10l-.5-403.54,5.5,1.36,5.31-1.56,7.69-2.26Z" fill="#f5c5cc"/>
    <path id="Path_582" data-name="Path 582" d="M799.19,724.67l-10.5,3.82-.65-393.76.96-9.98,7.69-2.26Z" fill="#cc929b"/>
    <path id="Path_583" data-name="Path 583" d="M653.69,648.99l-10.5,1-.48-269.59-.02-10.41,7-5.5.2,14.37Z" fill="#f5c5cc"/>
    <path id="Path_584" data-name="Path 584" d="M690.69,633.49l-10.5,1-.47-264.61-.03-15.39,7-5.5.26,18.26Z" fill="#f5c5cc"/>
    <path id="Path_585" data-name="Path 585" d="M751.69,608.49l-10.5,1-.47-263.99-.03-16.01,7-5.5.26,18.51Z" fill="#f5c5cc"/>
    <path id="Path_586" data-name="Path 586" d="M767.19,319.49l.5,280,10.5-1-4-284.5Z" fill="#f5c5cc"/>
    <path id="Path_587" data-name="Path 587" d="M672.19,645.99l-10.5,1-.48-271.12-.02-8.88,7-5.5.17,12.21Z" fill="#f5c5cc"/>
    <path id="Path_588" data-name="Path 588" d="M708.69,625.99l-10.5,1-.47-263.91-.03-16.09,7-5.5.26,18.68Z" fill="#f5c5cc"/>
    <path id="Path_589" data-name="Path 589" d="M729.02,619.32l-10.5,1-.47-263.91v-1.57l-.03-14.52,7-5.5.24,17.06.02,1.62Z" fill="#f5c5cc"/>
    <path id="Path_590" data-name="Path 590" d="M632.69,647.16l145-61.67,10,2.33.33,23-152.66,59Z" fill="#f5c5cc"/>
    <path id="Path_591" data-name="Path 591" d="M777.69,585.49l-145,61.67,154.46-59.47" fill="#cc929b"/>
    <path id="Path_592" data-name="Path 592" d="M257.02,614.49l365.67,111-.67,18-366.33-113Z" fill="#f5c5cc"/>
    <path id="Path_593" data-name="Path 593" d="M701.42,818.12l-10.5,4h-10l-.5-411h0v-2l.78-1.14,4.72-6.86,5.31-1.63,7.69-2.37.08,14Z" transform="translate(-62.73 -29.63)" fill="#f5c5cc"/>
    <path id="Path_594" data-name="Path 594" d="M638.69,788.49l-10.5,4-.65-412.19.96-10.44,7.69-2.37Z" fill="#cc929b"/>
    <path id="Path_595" data-name="Path 595" d="M698.92,397.12l.08,14a85.233,85.233,0,0,1-8.73.82c-7.2.28-9.85-.81-9.85-.81h0c0-.14.28-1.26.78-3.13l4.72-6.86,5.31-1.63Z" transform="translate(-62.73 -29.63)" opacity="0.1"/>
    <path id="Path_596" data-name="Path 596" d="M712.42,394.12l.2,14.37q-3.87.9-7.18,1.54V399.62Z" transform="translate(-62.73 -29.63)" opacity="0.1"/>
    <path id="Path_597" data-name="Path 597" d="M730.92,391.12l.17,12.21c-2.49.79-4.88,1.51-7.15,2.17v-8.88Z" transform="translate(-62.73 -29.63)" opacity="0.1"/>
    <path id="Path_598" data-name="Path 598" d="M749.42,378.62l.26,18.26q-3.75,1.39-7.23,2.63V384.12Z" transform="translate(-62.73 -29.63)" opacity="0.1"/>
    <path id="Path_599" data-name="Path 599" d="M767.42,371.12l.26,18.68-5.76,2.32-1.47.59V376.62Z" transform="translate(-62.73 -29.63)" opacity="0.1"/>
    <path id="Path_600" data-name="Path 600" d="M810.68,372.13l-7.23,3v-16l7-5.5Z" transform="translate(-62.73 -29.63)" opacity="0.1"/>
    <path id="Path_601" data-name="Path 601" d="M788,381.51l-7.21,3V369.99l7-5.5Z" transform="translate(-62.73 -29.63)" opacity="0.1"/>
    <path id="Path_602" data-name="Path 602" d="M865.42,361.12s-18.5,0-23.5-1.5-15.5,4.5-80,30.5c-39,15.73-60.65,19.38-71.65,19.81-7.2.28-9.85-.81-9.85-.81s13.17-60.42,55.11-71.71a124.382,124.382,0,0,0,13.77-4.63l.81-.31a81.985,81.985,0,0,1,10.81-3.35c13.46-3.09,23.07-9,47.4-9.18A66.55,66.55,0,0,1,850.1,333.8C858.44,340.36,865.63,349.43,865.42,361.12Z" transform="translate(-62.73 -29.63)" fill="#cc929b"/>
    <path id="Path_603" data-name="Path 603" d="M751.92,332.12c-51.9,22.38-59.82,64.21-61.65,77.81-7.2.28-9.85-.81-9.85-.81s13.17-60.42,55.11-71.71a124.382,124.382,0,0,0,13.77-4.63l.81-.31C750.71,332.38,751.31,332.26,751.92,332.12Z" transform="translate(-62.73 -29.63)" fill="#f5c5cc"/>
    <path id="Path_604" data-name="Path 604" d="M338.92,331.12l.11,7.66c-2.53.63-4.89,1.18-7.1,1.65v-3.81Z" transform="translate(-62.73 -29.63)" opacity="0.1"/>
    <path id="Path_605" data-name="Path 605" d="M357.42,328.12l.07,5.27q-3.69,1.22-7.07,2.23v-2Z" transform="translate(-62.73 -29.63)" opacity="0.1"/>
    <path id="Path_606" data-name="Path 606" d="M375.92,315.62l.16,11.16q-3.69,1.41-7.15,2.66v-8.32Z" transform="translate(-62.73 -29.63)" opacity="0.1"/>
    <path id="Path_607" data-name="Path 607" d="M393.92,308.12l.16,11.58q-3.45,1.33-7.14,2.81v-8.89Z" transform="translate(-62.73 -29.63)" opacity="0.1"/>
    <path id="Path_608" data-name="Path 608" d="M411.42,303.12l.14,10.26q-3.4,1.14-7.13,2.48v-7.24Z" transform="translate(-62.73 -29.63)" opacity="0.1"/>
    <path id="Path_609" data-name="Path 609" d="M436.92,290.62l.22,15.58c-2.21.46-4.6,1-7.2,1.67V296.12Z" transform="translate(-62.73 -29.63)" opacity="0.1"/>
    <path id="Path_610" data-name="Path 610" d="M463.78,306a26.369,26.369,0,0,0-7.33-1.62v-18.3l7-5.5Z" transform="translate(-62.73 -29.63)" opacity="0.1"/>
    <path id="Path_611" data-name="Path 611" d="M488.92,306.12s-18.5,0-23.5-1.5-15.5-9.5-80,16.5c-39,15.73-60.65,19.38-71.65,19.81-7.2.28-9.85-.81-9.85-.81s9.93-52.5,53.72-61.36a64.372,64.372,0,0,0,7.23-1.85c2.69-.88,6.93-2.14,12.63-3.45,14.7-3.38,39.07-7.09,71.46-5.52A44.32,44.32,0,0,1,478.75,281a34.31,34.31,0,0,1,10.17,25.12Z" transform="translate(-62.73 -29.63)" fill="#cc929b"/>
    <path id="Path_612" data-name="Path 612" d="M377.5,273.46c-51.9,22.38-61.9,53.87-63.73,67.47-7.2.28-9.85-.81-9.85-.81s9.93-52.5,53.72-61.36a64.372,64.372,0,0,0,7.23-1.85C367.56,276,371.8,274.77,377.5,273.46Z" transform="translate(-62.73 -29.63)" fill="#f5c5cc"/>
    <path id="Path_613" data-name="Path 613" d="M255.69,389.74l-.25-14.75,5.25-2.75,359,80.5-1,18.75Z" fill="#f5c5cc"/>
    <path id="Path_614" data-name="Path 614" d="M260.69,372.24l359,80.5-.5,7L256.22,374.58" fill="#cc929b"/>
    <circle id="Ellipse_51" data-name="Ellipse 51" cx="12" cy="12" r="12" transform="translate(776.69 716.49)" fill="#40414d"/>
    <circle id="Ellipse_52" data-name="Ellipse 52" cx="12" cy="12" r="12" transform="translate(617.69 784.49)" fill="#40414d"/>
    <path id="Path_615" data-name="Path 615" d="M332.09,579.45s-10.67,12-14,22.67,4,50.67,4,50.67a73.65,73.65,0,0,0,8-21.34C332.75,618.79,332.09,579.45,332.09,579.45Z" transform="translate(-62.73 -29.63)" fill="#ee7768"/>
    <path id="Path_616" data-name="Path 616" d="M838.42,679.12s6.5,33,7,38-16.5-2.5-16.5-2.5Z" transform="translate(-62.73 -29.63)" fill="#ee7768"/>
    <path id="Path_617" data-name="Path 617" d="M641.42,270.81h-.17a2,2,0,0,0-.37-.94,4.91,4.91,0,0,0-1.66-1.26L634.53,266l4.05,1.47a9.053,9.053,0,0,0-.63-.94l.47.26-.32-.45-.43-.15c-2.16-2.53-5.76-3.58-9.25-3.53h.06c.45-.06.91-.1,1.36-.13a16.232,16.232,0,0,0-3,.09h0a1.4,1.4,0,0,0,.35.1,9.392,9.392,0,0,0-1,.1,3,3,0,0,1-1.57,0,2.27,2.27,0,0,1-1.21-1.65c-.5-2,.29-4.15.52-6.24a6.69,6.69,0,0,0-.31-2.91v-.6a3,3,0,0,0-2-1.84,1.853,1.853,0,0,0,0,.23l-.17-.07v5.38a21.452,21.452,0,0,1-4.09-4.26,1.87,1.87,0,0,1-.41-.85c-.1-.91,1.06-1.54,1.13-2.46a1.37,1.37,0,0,0-1-1.3l.3-.11a2.25,2.25,0,0,0-1.14-.2,19.161,19.161,0,0,0-2.52.76l.26.05a5.689,5.689,0,0,1-.59.16c-2.51.52-4.75-1.48-6.56-3.29l-.39-.39c-.86-7.53-2.25-16.16-2.25-16.16s-1.25-9.86-3-15.16-4.27-14.66-4.27-14.66-5.76-11.37-7-11.87a15.262,15.262,0,0,1-1.41-.8,22.392,22.392,0,0,1-1-5.24c-.31-9.94,10.31-17,11.91-26.85,1.31-8-3.73-16-3-24.11.34-3.55,1.77-6.89,2.54-10.37a27.931,27.931,0,0,0,.29-10.27,16.932,16.932,0,0,0-1.64-5.27,28.467,28.467,0,0,0,3.61-6.11c1.62-4.62-.13-9.78-2.66-14-8.13-13.43-24.6-24-40-25.37-6.21-.57-12.44-.68-18.66-.78-7.14-.13-14.52-.21-21.12,2.55-13.12,5.49-19.33,20.16-27.3,32a90.721,90.721,0,0,1-24.82,24.77c-4.61,3.08-10,6.36-11.08,11.83a10.765,10.765,0,0,0-.19,1.59,14.646,14.646,0,0,1-.33-1.46c-1.09,5.71,2.94,11,5,16.45a29,29,0,0,1,1.84,8.89,38.872,38.872,0,0,0,0-4.32c2,10.38-1.67,21.52-3.94,32.13-.17.78-.3,1.56-.46,2.34a19.131,19.131,0,0,0-5.26,2.37,29.58,29.58,0,0,1-11.82,4.6,22.08,22.08,0,0,0-14.22,8.54c-.64.86-1.26,1.45-1.8,1.51-2.25.26-14.79,39.42-14.79,39.42S407,255.55,407,259.33s-4.51,31.08-4.51,31.08-1.51,5-1,7.07c.29,1.15-.4,5-1.05,8.1a1.8,1.8,0,0,1-.7-.52c-.75-1.51-14.55,0-10.28,10.11a19.82,19.82,0,0,0,4.83,7.18c-1.9,4.76-3.55,9.19-3.33,9.75,0,0,0,3.61.32,8.07-2.93,2-5.33,3.8-5.33,3.8-.21,5.52,3.47,6.4,6.93,6.2.89,3.2,2.19,5.74,4.1,6.43,6.27,2.28,10.28,1.27,12.29,3S422,364.69,422,364.69A126.77,126.77,0,0,0,435.74,366l1.84.92-.22-1c.59-.11.32-.81-.42-2-.33-1.53-.75-3.53-1.22-5.81l2.75-1,.75,1.11c-1,5.24-1.64,8.73-1.64,8.73s-5,17.94-2.76,20.72,0,6.32,0,6.32-.5,4.54.76,4.54,2.75,5.81,1.5,6.07-7,5.05-5,6.06,0,3.28,0,5.56c0,1.66,3.06,4.12,4.72,5.33-.3,1.08-.61,2.23-.9,3.36-.86,3.34-1.53,6.56-1.32,7.73.5,2.78-1.25,10.61-.75,13.14s2.26,8.08,1,10.36.25,9.85.25,9.85l2.26,21.47s-1.5,6.07,0,7.58,2.76,19.21,4.26,21.23,3.77,12.63,2,16.17,2.26,10.86,2.26,10.86-.25,8.59-.25,10.86,2.25,5.81,2.25,5.81,2.26,12.13,2,15.16,1.5,7.33,1.5,7.33,1.51,8.84,1.26,10.86,2,4.8,2,4.8,2.76,6.57,2,9.35,1.75,5.56,1.75,5.56-.25,6.06-.25,6.82,5.27,6.82,5.27,6.82-2.26,4.55-1,6.32,1,8.08,3,10.11,1.5,10.35,4,11.87,4.76,2.78,5.26,6.06,2.51,8.09,4.77,8.85a4.35,4.35,0,0,1,1.1,1.09l-1,4.25-3.09,12.85s-3,18.69-2.76,21.47-3,5.56-3,5.56-2.76,16.17-3.26,18.19.25,5.81.25,5.81-1.75,9.6-.5,10.11,6.52,5.81,6.52,5.81h.41l-.54,1.9-8.65,30.7s-8,13.39,10.54,20.21c.62,1.2,1.19,1.23.52,1,.61.52,13,11,14,15.91s9.53,10.1,12.54,10.61,23.07,16.67,30.34.76-12.79-26.28-12.79-26.28L504.78,800s-7.77-11.37-9-13.39-3.51-11.88-2-13.39c.77-.78,3.18-7.7,5.36-14.28.2-.63.41-1.25.61-1.87,4.26,1,9.08-1,9.08-1L520,738.45l2-3.09.36.72s9.28.76,13.79,1.52a13,13,0,0,0,4.24-.53c.17.37.34.75.5,1.13a55.3,55.3,0,0,1,2.78,7.23c.75,3.28,1.51,14.9,1.51,14.9s-5,16.68-6.27,19.71,1.25,28.3,26.08,18.19c0,0,3-4.8,5.76-4.8s9.53-6.82,7-14.15-13-29.81-5.76-41.68c5.84-9.56,5.37-22.38-2.48-28.34-.33-.25-.68-.47-1-.69a28.626,28.626,0,0,0,0-3.82c-1.76-24.25-13-25.52-13-25.52s-6.52-1.51-7.27-4c-.44-1.46-6.09-9-10.77-15.13.16-.26.31-.52.46-.78,0-.09.1-.18.14-.27.22-.41.43-.83.63-1.27,3.64-8.18,2.7-20.08,2.51-22.21-.25-2.78,0-6.32,0-10.36s4-10.11,3.51-12.38,4.77-11.62,4.77-13.9S553.18,583,553.18,583s7.27-15.67,8.78-20.22c1.44-4.36,27.12-83.84,29.2-90.28a3.894,3.894,0,0,1,.14-.42s8.2-26.83,2.71-44.45a28.25,28.25,0,0,0-1.29-3.41c1.68-.81,2.84-1.4,2.84-1.4s-3.26-9.6-1.76-13.14.5-10.36.5-10.36-6-3.54-6.26-5.05-2.76-3.54-2-5.56,5-1,4.51-5.56-5.76-9.35-5.26-12.13,2.5-7.83,0-10.86-3.51-7.83-3.76-11.62c-.07-1,.15-3.95.5-7.84a88.044,88.044,0,0,0,8.27,4.55s10.78,1.52,11.29.51a23.767,23.767,0,0,1,3.26-3.54c13.54-3.28,7.52-28,7.52-28s-.2-1.81-.52-4.79a2.629,2.629,0,0,0,.94-.45c1.15-.84,1.43-2.44,2.13-3.7a18.379,18.379,0,0,1,2.78-3.26c2.48-2.7,3.95-6.15,5.37-9.54.9-2.16,1.82-4.32,2.73-6.49s2-4.76,4-6.33c2.3-1.85,5.42-2.21,8.35-2.48a10.45,10.45,0,0,0-2.39-6.12,6.14,6.14,0,0,1,5.26.8,2.122,2.122,0,0,0,.11-.21h.06A1.35,1.35,0,0,0,641.42,270.81ZM427.29,340c.06-.5.15-1,.26-1.5.49-.46,1.08-1,1.71-1.5l3.5.34c-.86.7-1.61,1.34-2.22,1.86C429.46,338.65,428.28,339.19,427.29,340Zm7-6.93a5.379,5.379,0,0,0,1.45-.31h3.06c-1.67,1.17-3.36,2.47-4.86,3.68l.35-3.29Zm5.77-51s-.23,7.18.28,14.4c-.78.55-1.59,1.15-2.39,1.78l1.77-16.65Z" transform="translate(-62.73 -29.63)" fill="url(#linear-gradient)"/>
    <path id="Path_618" data-name="Path 618" d="M570.67,792.37c-2.75,0-5.75,4.75-5.75,4.75-24.75,10-27.25-15-26-18s6.25-19.5,6.25-19.5-.75-11.5-1.5-14.75a55.769,55.769,0,0,0-2.77-7.15c-1.68-3.83-3.48-7.6-3.48-7.6s10.75-26.5,25-24a16.079,16.079,0,0,1,7,3c7.83,5.9,8.3,18.59,2.47,28-7.25,11.75,3.25,34,5.75,41.25S573.42,792.37,570.67,792.37Z" transform="translate(-62.73 -29.63)" fill="#fdc2cc"/>
    <path id="Path_619" data-name="Path 619" d="M532.92,834.62c-7.25,15.75-27.25-.25-30.25-.75s-11.5-5.5-12.5-10.5-13.37-15.23-14-15.74c.67.21.1.18-.52-1-18.5-6.75-10.5-20-10.5-20l8.62-30.38,2.38-8.37,27-1.75s-1.85,5.91-3.91,12.12c-2.17,6.51-4.57,13.36-5.34,14.13-1.5,1.5.75,11.25,2,13.25s9,13.25,9,13.25l15.25,9.75S540.17,818.87,532.92,834.62Z" transform="translate(-62.73 -29.63)" fill="#fdc2cc"/>
    <path id="Path_620" data-name="Path 620" d="M503.17,746.12s-1.85,5.91-3.91,12.12a7.189,7.189,0,0,1-3.59-2.37l-21.75.5-.13-.13,2.38-8.37Z" transform="translate(-62.73 -29.63)" opacity="0.1"/>
    <path id="Path_621" data-name="Path 621" d="M591.17,474.37a1.081,1.081,0,0,1-.13.41c-2.08,6.37-27.68,85-29.12,89.34-1.5,4.5-8.75,20-8.75,20s-3.75,13.5-3.75,15.75-5.25,11.5-4.75,13.75-3.5,8.25-3.5,12.25-.25,7.5,0,10.25c.19,2.11,1.12,13.89-2.51,22a14.792,14.792,0,0,1-3.45,5,10.7,10.7,0,0,1-1.29,1c-9,6-9.75,67.5-9.75,67.5l-.42.66L520.1,738l-11.18,17.4s-9,3.75-13.25-1.5l-21.75.5s-5.25-5.25-6.5-5.75.5-10,.5-10-.75-3.75-.25-5.75,3.25-18,3.25-18,3.25-2.75,3-5.5,2.75-21.25,2.75-21.25l3.08-12.71,1.52-6.27,3.15-13,21.25-187.75,27-8.25,52,2.5,5.7,10.3Z" transform="translate(-62.73 -29.63)" fill="#5f5d7e"/>
    <path id="Path_622" data-name="Path 622" d="M517.92,566.62c-.25,4.75-1.5,12-1,16.25s2.25,20.25,1.5,23.25,2.75,6.5,4,8,.5,6,.75,9.5,3.5,6.75,3.5,6.75-3.75,8-1,9.25,8.5,12.75,8.5,12.75,1.93,2.43,4.49,5.73a13.71,13.71,0,0,1-4.74,6c-9,6-9.75,67.5-9.75,67.5l-.42.66-5.58-11.16s-33.25-50.25-35.5-51a3.52,3.52,0,0,1-1.4-1l3.15-13,21.25-187.75,27-8.25,52,2.5-27.38,2.75s-12.17,8.73-12.25,9l-21.87,9.25-4,60S518.17,561.87,517.92,566.62Z" transform="translate(-62.73 -29.63)" opacity="0.1"/>
    <path id="Path_623" data-name="Path 623" d="M590.37,472.92c-.69,2.78-72.7-5.55-72.7-5.55l.5,19.25-4,60s-1,18.25-1.25,23-1.5,12-1,16.25,2.25,20.25,1.5,23.25,2.75,6.5,4,8,.5,6,.75,9.5,3.5,6.75,3.5,6.75-3.75,8-1,9.25,8.5,12.75,8.5,12.75,2.75,3.47,6,7.73a10.7,10.7,0,0,1-1.29,1c-9,6-9.75,67.5-9.75,67.5l-.42.66L520.1,738l-6.93-13.85s-25.65-38.77-33.42-48.71l1.52-6.27,3.15-13,21.25-187.75,27-8.25,52,2.5Z" transform="translate(-62.73 -29.63)" opacity="0.1"/>
    <path id="Path_624" data-name="Path 624" d="M569.45,709.08c-1,17.9-19.86,26.66-28.55,28.64-1.68-3.83-3.48-7.6-3.48-7.6s10.75-26.5,25-24a16.079,16.079,0,0,1,7.03,2.96Z" transform="translate(-62.73 -29.63)" opacity="0.1"/>
    <path id="Path_625" data-name="Path 625" d="M514.92,566.62c-.25,4.75-1.5,12-1,16.25s2.25,20.25,1.5,23.25,2.75,6.5,4,8,.5,6,.75,9.5,3.5,6.75,3.5,6.75-3.75,8-1,9.25,8.5,12.75,8.5,12.75,16.25,20.5,17,23,7.25,4,7.25,4,11.25,1.25,13,25.25-27.75,33.25-32.25,32.5-13.75-1.5-13.75-1.5l-7.25-14.5s-33.25-50.25-35.5-51-4.25-5.5-4.75-8.75-2.75-4.5-5.25-6-2-9.75-4-11.75-1.75-8.25-3-10,1-6.25,1-6.25-5.25-6-5.25-6.75.25-6.75.25-6.75-2.5-2.75-1.75-5.5-2-9.25-2-9.25-2.25-2.75-2-4.75-1.25-10.75-1.25-10.75-1.75-4.25-1.5-7.25-2-15-2-15-2.25-3.5-2.25-5.75.25-10.75.25-10.75-4-7.25-2.25-10.75-.5-14-2-16-2.75-19.5-4.25-21,0-7.5,0-7.5l-2.25-21.25s-1.5-7.5-.25-9.75-.5-7.75-1-10.25,1.25-10.25.75-13c-.21-1.16.46-4.34,1.31-7.65,1.18-4.56,2.69-9.35,2.69-9.35s128.5-12,147,.5c4,2.68,6.47,6.75,8,11.51,5.47,17.44-2.71,44-2.71,44l-71,9.25-4,60S515.17,561.87,514.92,566.62Z" transform="translate(-62.73 -29.63)" fill="#5f5d7e"/>
    <path id="Path_626" data-name="Path 626" d="M494.42,655.62s22.25-6.75,27.5-2.25S494.42,655.62,494.42,655.62Z" transform="translate(-62.73 -29.63)" opacity="0.1"/>
    <path id="Path_627" data-name="Path 627" d="M502.42,684.12s6.75-7.25,16.75-5a27.25,27.25,0,0,0,17.5-1.75Z" transform="translate(-62.73 -29.63)" opacity="0.1"/>
    <path id="Path_628" data-name="Path 628" d="M525.92,692.37s18.25-2.5,19-.25S525.92,692.37,525.92,692.37Z" transform="translate(-62.73 -29.63)" opacity="0.1"/>
    <path id="Path_629" data-name="Path 629" d="M520.67,707.12s20.25-6,21.25-3.5-22.25,3.25-22.25,3.25Z" transform="translate(-62.73 -29.63)" opacity="0.1"/>
    <path id="Path_630" data-name="Path 630" d="M543.42,572.37s-19,16.75-16.25,18.5S543.42,572.37,543.42,572.37Z" transform="translate(-62.73 -29.63)" opacity="0.1"/>
    <path id="Path_631" data-name="Path 631" d="M527.92,613.87s13.25,0,10.75,3S527.92,613.87,527.92,613.87Z" transform="translate(-62.73 -29.63)" opacity="0.1"/>
    <path id="Path_632" data-name="Path 632" d="M535.92,625.62s-5.25,4.5-4,5.5S535.92,625.62,535.92,625.62Z" transform="translate(-62.73 -29.63)" opacity="0.1"/>
    <path id="Path_633" data-name="Path 633" d="M478.17,732.87s16.5,5.5,16.75,9S478.17,732.87,478.17,732.87Z" transform="translate(-62.73 -29.63)" opacity="0.1"/>
    <path id="Path_634" data-name="Path 634" d="M558.17,210.12l-5.25,31.25s-45.5,24-46.25,24-33.25-5.5-34.5-5.5-22.5-64.25-7.5-68.25c4.06-1.08,9.95-3.68,16.38-6.91,17.34-8.67,38.62-21.84,38.62-21.84s31.75-3.5,24,18.5c-3,8.63-1.46,14.91,1.57,19.36C550,207.63,558.17,210.12,558.17,210.12Z" transform="translate(-62.73 -29.63)" fill="#fdc2cc"/>
    <path id="Path_635" data-name="Path 635" d="M558.17,210.12l-5.25,31.25s-45.5,24-46.25,24-33.25-5.5-34.5-5.5-22.5-64.25-7.5-68.25c4.06-1.08,9.95-3.68,16.38-6.91,4.09.27,6.87.66,6.87.66s10,38.25,10.75,50,26.75,13,28.5,12.5,9-29.25,9-29.25-.75-10,1.5-10c1.88,0,6.22-6,7.57-7.89C550,207.63,558.17,210.12,558.17,210.12Z" transform="translate(-62.73 -29.63)" opacity="0.1"/>
    <path id="Path_636" data-name="Path 636" d="M593.88,430.38c-3.48,1.7-11.8,5.58-14,5-2.75-.75-9.5-.75-9.5-.75s-4,4.5-8.25,3.5-21-.25-21-.25-30,1.25-35.75-.75-26.25-3.75-26.25-3.75-28-3.25-32.75-5.25a8.19,8.19,0,0,0-8.25,1s-.87-.57-1.94-1.4c1.18-4.56,2.69-9.35,2.69-9.35s128.5-12,147,.5C589.88,421.55,592.39,425.62,593.88,430.38Z" transform="translate(-62.73 -29.63)" opacity="0.1"/>
    <path id="Path_637" data-name="Path 637" d="M487.92,187.37s-25.25-3.5-35.25,3.25a29.58,29.58,0,0,1-11.78,4.55,22.05,22.05,0,0,0-14.18,8.45c-.64.86-1.26,1.44-1.79,1.5-2.25.25-14.75,39-14.75,39l30.25,42.25s-.75,23.5,3.5,28-6,56-6,56-5,17.75-2.75,20.5,0,6.25,0,6.25-.5,4.5.75,4.5,2.75,5.75,1.5,6-7,5-5,6,0,3.25,0,5.5,5.75,6,5.75,6a8.19,8.19,0,0,1,8.25-1c4.75,2,32.75,5.25,32.75,5.25s20.5,1.75,26.25,3.75,35.75.75,35.75.75,16.75-.75,21,.25,8.25-3.5,8.25-3.5,6.75,0,9.5.75,15.5-5.75,15.5-5.75-3.25-9.5-1.75-13,.5-10.25.5-10.25-6-3.5-6.25-5-2.75-3.5-2-5.5,5-1,4.5-5.5-5.75-9.25-5.25-12,2.5-7.75,0-10.75-3.5-7.75-3.75-11.5,3.75-37.75,3.75-37.75l-9.25-68.5,28.25-14s-1.25-9.75-3-15-4.25-14.5-4.25-14.5-5.75-11.25-7-11.75-14.5-9.25-17.5-8-26.75,19.5-26.75,19.5-5.75,8.5-8,8.5-1.5,10-1.5,10-7.25,28.75-9,29.25-27.75-.75-28.5-12.5S487.92,187.37,487.92,187.37Z" transform="translate(-62.73 -29.63)" fill="#d39999"/>
    <path id="Path_638" data-name="Path 638" d="M448.72,335.18a56.692,56.692,0,0,1-10.55,1.3c-5.13.14-9.64-.51-10.75-2.36-3-5-3-14.5-3-14.5s13.56,3.13,22.92,6.55l1.55.58h0c3.63,1.41,6.39,2.85,7,4.11C456.76,332.55,453.41,334.13,448.72,335.18Z" transform="translate(-62.73 -29.63)" fill="#fdc2cc"/>
    <circle id="Ellipse_53" data-name="Ellipse 53" cx="45.75" cy="45.75" r="45.75" transform="translate(438.44 74.99)" opacity="0.1"/>
    <circle id="Ellipse_54" data-name="Ellipse 54" cx="45.75" cy="45.75" r="45.75" transform="translate(438.44 72.99)" fill="#fdc2cc"/>
    <path id="Path_639" data-name="Path 639" d="M445.67,395.37s13,0,18,1.25,15.5,1.5,15.5,1.5S450.17,397.12,445.67,395.37Z" transform="translate(-62.73 -29.63)" opacity="0.1"/>
    <path id="Path_640" data-name="Path 640" d="M446.17,403.37s16.75,1.25,17,3.75S446.17,403.37,446.17,403.37Z" transform="translate(-62.73 -29.63)" opacity="0.1"/>
    <path id="Path_641" data-name="Path 641" d="M573.67,372.62s10.25,3.75,10,5S574.67,375.62,573.67,372.62Z" transform="translate(-62.73 -29.63)" opacity="0.1"/>
    <path id="Path_642" data-name="Path 642" d="M416.67,239.62l-6.5,4.5s-2.75,16-2.75,19.75-4.5,30.75-4.5,30.75-1.5,5-1,7-2,12.25-2,12.25-9,20.75-8.5,22,42.75,5.25,42.75,5.25l6-56Z" transform="translate(-62.73 -29.63)" fill="#d39999"/>
    <path id="Path_643" data-name="Path 643" d="M397.67,329.12l-6.25,6.75s-.25,22,6,24.25,10.25,1.25,12.25,3,12.75,5,12.75,5,11.75,1.75,15.25,1.25-20.5-19.75-4.75-36Z" transform="translate(-62.73 -29.63)" fill="#d39999"/>
    <path id="Path_644" data-name="Path 644" d="M595.42,222.12l8.75,9.75s3.75,23.25,2.75,26.5,5.25,59.75,5.25,59.75,6,24.5-7.5,27.75a23.593,23.593,0,0,0-3.25,3.5c-.5,1-11.25-.5-11.25-.5l-16.5-108.25Z" transform="translate(-62.73 -29.63)" fill="#d39999"/>
    <path id="Path_645" data-name="Path 645" d="M476.42,311.62s32.75-19.5,38.75-20.5,43.25-18.75,43.25-18.75,18.5,9.5,20.25,16.75-7.75,36.25-7.75,36.25-30.5,21.25-32.25,25.75-28,17.75-28,20-41.5,26.75-59.75,5.25-18-27.75-18-27.75l46.25-10.75,4.5-20Z" transform="translate(-62.73 -29.63)" opacity="0.1"/>
    <path id="Path_646" data-name="Path 646" d="M476.42,309.62s32.75-19.5,38.75-20.5,43.25-18.75,43.25-18.75,18.5,9.5,20.25,16.75-7.75,36.25-7.75,36.25-30.5,21.25-32.25,25.75-28,17.75-28,20-41.5,26.75-59.75,5.25-18-27.75-18-27.75l46.25-10.75,4.5-20Z" transform="translate(-62.73 -29.63)" fill="#c4c8e2"/>
    <path id="Path_647" data-name="Path 647" d="M425.92,318.37l-1.5,12.5L412.53,330l-11.61-.86s-6.75,0-11-10,9.5-11.5,10.25-10c.57,1.13,15,5.84,22,8.07Z" transform="translate(-62.73 -29.63)" fill="#fdc2cc"/>
    <path id="Path_648" data-name="Path 648" d="M425.92,318.37l-1.5,12.5L412.53,330c1.94-2.88,6-8.15,9.65-12.79Z" transform="translate(-62.73 -29.63)" opacity="0.1"/>
    <path id="Path_649" data-name="Path 649" d="M424.42,319.62s13.56,3.13,22.92,6.55c-.62,1-4.76,7.48-9.17,10.31-5.13.14-9.64-.51-10.75-2.36C424.42,329.12,424.42,319.62,424.42,319.62Z" transform="translate(-62.73 -29.63)" opacity="0.1"/>
    <path id="Path_650" data-name="Path 650" d="M448.72,335.18l-.22-1.73s-.1-.37-.19-.93c-.18-1.14-.31-3.06.53-4.23.49-.69.38-1.18.06-1.53,3.63,1.41,6.39,2.85,7,4.11C456.76,332.55,453.41,334.13,448.72,335.18Z" transform="translate(-62.73 -29.63)" opacity="0.1"/>
    <path id="Path_651" data-name="Path 651" d="M491.17,327s-13.58,13.59-14.42,16.5-26.5,3-26.5,3l-1.75-14s-.1-.37-.19-.93c-.18-1.14-.31-3.06.53-4.23,1.25-1.75-1.42-2.25-1.42-2.25s-6.92,11.41-12.75,11.75c0,0-8.08,5.83-8,7,0,0-3.92,3.58-4,7.91s-5.08,6.09-8.75,4.84-12.75-3.92-15.67-3.5-12.16,3.16-11.83-5.42c0,0,12-9,15-8.75s10-3.25,11-6,18-23.75,18-23.75S441.17,299,445.5,298c0,0,8.67-6.75,21.75,3.5,0,0,18.09,11.16,18.67,12.66.46,1.18,5.71,6.22,6.15,10a3.09,3.09,0,0,1-.9,2.84Z" transform="translate(-62.73 -29.63)" fill="#fdc2cc"/>
    <path id="Path_652" data-name="Path 652" d="M448.75,307.12s1.33,7.67.67,10.42-2,7.5-2,7.5S455.5,312.37,448.75,307.12Z" transform="translate(-62.73 -29.63)" opacity="0.1"/>
    <path id="Path_653" data-name="Path 653" d="M449.33,325.79s4.17-4.59,5.09-3.42S449.33,325.79,449.33,325.79Z" transform="translate(-62.73 -29.63)" opacity="0.1"/>
    <path id="Path_654" data-name="Path 654" d="M620.05,279a29.26,29.26,0,0,1-21.241,28.14,28.778,28.778,0,0,1-7.869,1.12h-.15A29.25,29.25,0,0,1,561.55,279a27.863,27.863,0,0,1,.46-5.12,29.2,29.2,0,0,1,26.66-24c.7-.06,1.41-.09,2.12-.09A29.25,29.25,0,0,1,620.05,279Z" transform="translate(-62.73 -29.63)" fill="#f8bdc5"/>
    <path id="Path_655" data-name="Path 655" d="M635.48,275.41a10.29,10.29,0,0,1,2.38,6.06c-2.92.27-6,.62-8.32,2.45-2,1.56-3,4-4,6.27q-1.37,3.21-2.72,6.42c-1.42,3.35-2.88,6.77-5.35,9.44a18.479,18.479,0,0,0-2.78,3.22c-.69,1.25-1,2.83-2.12,3.67a4,4,0,0,1-3.78.21c-1.23-.46-2.33-1.23-3.56-1.72a11.332,11.332,0,0,0-2.45-.64h0c-3.66-.54-7.69.25-10.8-1.72a6.435,6.435,0,0,1-1-.82,9.68,9.68,0,0,1-2.55-4.32,4.86,4.86,0,0,1-.24-2.07,4.47,4.47,0,0,1,2.32-3c.17-.1.34-.2.52-.29,3-1.57,7.17-1.94,8.74-5,1.5-2.9-.36-6.43-2.64-8.77-1.08-1.1-2.36-2.35-2.21-3.89.14-1.36,1.35-2.31,2.36-3.22a17.52,17.52,0,0,0,5.48-9.83,7.471,7.471,0,0,0-.06-3.55,9.411,9.411,0,0,0-1.27-2.33l-3.24-4.8a13.171,13.171,0,0,0-4-4.24c-1.35-.81-2.9-1.09-4.26-1.89a3.38,3.38,0,0,1-1.26-1.2,1.29,1.29,0,0,1-.16-.94c.17-.8,1-1.19,1.83-1.42a17.829,17.829,0,0,1,6.62-.63,5.14,5.14,0,0,0,2.14,0,1.51,1.51,0,0,0,1.11-1.63c2.46-.64,4.79,1.28,6.59,3.08s4,3.77,6.54,3.26c.91-.18,1.75-.7,2.67-.8s2.06.5,2,1.43-1.22,1.53-1.12,2.43a1.79,1.79,0,0,0,.41.84,21.142,21.142,0,0,0,4.07,4.22c0-1.77,0-3.55,0-5.32,2,.5,2.73,3.06,2.5,5.13s-1,4.16-.52,6.18a2.27,2.27,0,0,0,1.2,1.63,3,3,0,0,0,1.57,0c4.59-.65,9.95.57,12.23,4.6l-4-1.45L639,273a4.891,4.891,0,0,1,1.66,1.25,1.66,1.66,0,0,1,.12,1.94,6.21,6.21,0,0,0-5.3-.78Z" transform="translate(-62.73 -29.63)" fill="#585268"/>
    <g id="Group_5" data-name="Group 5" opacity="0.1">
      <path id="Path_656" data-name="Path 656" d="M626.67,267.08a3,3,0,0,0,1.57,0c.45-.06.9-.1,1.36-.13a16.118,16.118,0,0,0-3,.09Z" transform="translate(-62.73 -29.63)"/>
      <path id="Path_657" data-name="Path 657" d="M636.43,270.26l1.72.95-.32-.45Z" transform="translate(-62.73 -29.63)"/>
      <path id="Path_658" data-name="Path 658" d="M623.53,259.46v-3.5a3.08,3.08,0,0,0-2-1.82v3.52a21.5,21.5,0,0,0,2,1.8Z" transform="translate(-62.73 -29.63)"/>
      <path id="Path_659" data-name="Path 659" d="M638.43,275.06a6.2,6.2,0,0,1,2.46,1,1.239,1.239,0,0,0,.25-.81,6.36,6.36,0,0,0-2.71-.19Z" transform="translate(-62.73 -29.63)"/>
      <path id="Path_660" data-name="Path 660" d="M611,313c-1.23-.46-2.33-1.23-3.56-1.72a11.329,11.329,0,0,0-2.45-.64h0c-3.66-.54-7.69.25-10.8-1.72a6.441,6.441,0,0,1-1-.82,9.68,9.68,0,0,1-2.55-4.32,4.859,4.859,0,0,1-.24-2.07,4.47,4.47,0,0,1,2.32-3c.17-.1.34-.2.52-.29,3.05-1.57,7.17-1.94,8.74-5,1.5-2.9-.36-6.43-2.64-8.77-1.08-1.1-2.36-2.35-2.21-3.89.14-1.36,1.35-2.31,2.36-3.22a17.52,17.52,0,0,0,5.48-9.83,7.471,7.471,0,0,0-.06-3.55,9.411,9.411,0,0,0-1.27-2.33l-3.24-4.8a13.169,13.169,0,0,0-4-4.24c-1.35-.81-2.9-1.09-4.26-1.89a3.381,3.381,0,0,1-1.26-1.2,1.29,1.29,0,0,1-.16-.94c.17-.8,1.05-1.19,1.83-1.42a18.488,18.488,0,0,1,4-.66,18,18,0,0,0-6,.66c-.78.23-1.66.62-1.83,1.42a1.29,1.29,0,0,0,.16.94,3.38,3.38,0,0,0,1.26,1.2c1.36.8,2.91,1.08,4.26,1.89a13.17,13.17,0,0,1,4,4.24l3.24,4.8a9.409,9.409,0,0,1,1.27,2.33,7.47,7.47,0,0,1,.06,3.55,17.521,17.521,0,0,1-5.48,9.83c-1,.91-2.22,1.86-2.36,3.22-.15,1.54,1.13,2.79,2.21,3.89,2.28,2.34,4.14,5.87,2.64,8.77-1.57,3.05-5.69,3.42-8.74,5-.18.09-.35.19-.52.29a4.47,4.47,0,0,0-2.32,3,4.861,4.861,0,0,0,.24,2.07,9.679,9.679,0,0,0,2.55,4.32,6.443,6.443,0,0,0,1,.82c3.11,2,7.14,1.18,10.8,1.72h0a11.329,11.329,0,0,1,2.45.64c1.23.49,2.33,1.26,3.56,1.72a4.72,4.72,0,0,0,2.82.24A5.915,5.915,0,0,1,611,313Z" transform="translate(-62.73 -29.63)"/>
      <path id="Path_661" data-name="Path 661" d="M615.5,251.34a14.7,14.7,0,0,0,1.81-.59,2.15,2.15,0,0,0-1.14-.21,21.065,21.065,0,0,0-2.5.76,4.17,4.17,0,0,0,1.83.04Z" transform="translate(-62.73 -29.63)"/>
      <path id="Path_662" data-name="Path 662" d="M599.12,246.68a5.14,5.14,0,0,0,2.14-.05,1.51,1.51,0,0,0,1.11-1.62,4,4,0,0,0-2,0,1.51,1.51,0,0,1-1.11,1.63,1.6,1.6,0,0,1-.21.05Z" transform="translate(-62.73 -29.63)"/>
    </g>
    <path id="Path_663" data-name="Path 663" d="M564.42,263c-3.73,2.79-9.68,4-15.15,4.4a81.373,81.373,0,0,1-12.85,0l-9.63-3.62s.78-1.55,2.1-3.6c2.63-4.08,7.41-10.15,12.4-9.9,7.5.37,15.38.74,16.13.74S572.79,256.75,564.42,263Z" transform="translate(-62.73 -29.63)" fill="#fdc2cc"/>
    <path id="Path_664" data-name="Path 664" d="M540.06,62.83c-7.12-.13-14.47-.21-21,2.53C505.93,70.79,499.74,85.3,491.8,97a90.49,90.49,0,0,1-24.75,24.51c-4.6,3-9.94,6.3-11.05,11.7-1.18,5.71,2.9,11,5,16.41,4.45,11.51,0,24.26-2.63,36.32A117.9,117.9,0,0,0,456,203.52a24.4,24.4,0,0,0,.53,8.18c2,7.06,9.56,12.16,9.62,19.5,0,5-3.52,9.72-2.49,14.58,1.33,6.21,8.87,8.45,15.12,9.52a7.73,7.73,0,0,0,4.55-.14c1-.48,1.82-1.4,2.84-1.91,3.47-1.72,7.32,1.91,11.2,1.84,4.87-.09,7.61-5.84,7.73-10.71s-1.18-10,.57-14.5c2.33-6,9-8.85,14.63-12,6.23-3.49,12.16-8.53,14-15.42,1.15-4.26.63-8.77.17-13.15-.7-6.72-1.25-13.47-1.63-20.21a28.485,28.485,0,0,1,30.46-30.19h.32c5,.41,10.9.89,14.43-2.75,1.4-1.45,2.29-3.45,4-4.45,3.34-1.9,7.93.81,11.29-1.06,2.63-1.47,3.19-5,2.78-8s-1.46-6-.9-8.94c.8-4.17,4.59-7.15,6-11.16,1.62-4.57-.13-9.68-2.65-13.82C590.5,75.42,574.07,65,558.67,63.6,552.48,63,546.27,62.93,540.06,62.83Z" transform="translate(-62.73 -29.63)" fill="#865a61"/>
    <path id="Path_665" data-name="Path 665" d="M528.89,260.15c5.94,1.22,13.17,3.93,20.38,7.24a81.373,81.373,0,0,1-12.85,0l-9.63-3.62A41.806,41.806,0,0,1,528.89,260.15Z" transform="translate(-62.73 -29.63)" opacity="0.1"/>
    <path id="Path_666" data-name="Path 666" d="M602.79,310.79c-3.66-.54-7.69.25-10.8-1.72a6.435,6.435,0,0,1-1-.82h-.15A29.25,29.25,0,0,1,561.55,279a27.863,27.863,0,0,1,.46-5.12c10.25,5.73,18.56,11.62,20.16,14.5a59.523,59.523,0,0,0,8.3,10.47c2.79,3,5.78,5.88,8.34,8.29C600.33,308.55,601.7,309.8,602.79,310.79Z" transform="translate(-62.73 -29.63)" opacity="0.1"/>
    <path id="Path_667" data-name="Path 667" d="M604.42,314.12s-18.25-15.75-23.25-24.75-75.25-47.25-66.25-18.25,40,31.75,40,31.75,10,11.25,11,16.75,4.5,13.5,4.5,13.5l16.75,7.5,7.75-1.75S613.17,328.87,604.42,314.12Z" transform="translate(-62.73 -29.63)" fill="#fdc2cc"/>
    <path id="Path_668" data-name="Path 668" d="M569.42,332.12s29.5,16.75,32.5-22.5l7.5,2.5-7.5,26.5-12.75,9.25S571.42,339.62,569.42,332.12Z" transform="translate(-62.73 -29.63)" opacity="0.1"/>
    <path id="Path_669" data-name="Path 669" d="M570.42,333.12s29.5,16.75,32.5-22.5l7.5,2.5-7.5,26.5-12.75,9.25S572.42,340.62,570.42,333.12Z" transform="translate(-62.73 -29.63)" fill="#d39999"/>
    <path id="Path_670" data-name="Path 670" d="M596.47,134.22c.34-3.51,1.77-6.82,2.52-10.27a27.13,27.13,0,0,0,.3-10.16,14.749,14.749,0,0,0-2.64-6.76c-1-1.25-4-4-5.75-2.76-1,.71-1.27,4.82-1.67,6a51.809,51.809,0,0,1-5.6,11.25,45.74,45.74,0,0,1-37,72.58c-1.09,0-2.17-.05-3.24-.13-1,1.74-1.91,3.5-2.83,5.26a16.339,16.339,0,0,0-2.16,5.83,15.18,15.18,0,0,0,.89,5.8,81.809,81.809,0,0,0,7.66,17.49,26.45,26.45,0,0,1,2.75,5.47c.57,1.85.67,3.83,1.41,5.61,1.66,4,6,6,10,7.67,2.39,1,4.89,2,7.47,1.79a1.74,1.74,0,0,0,1.87-1.77,6.77,6.77,0,0,0-2-5.75,28.7,28.7,0,0,0,10.5,1.25,1.69,1.69,0,0,0,1.82-2.48,45,45,0,0,0-4.18-10.82c-1.82-3.36-4.14-7.27-2.48-10.7.95-2,2.95-3.12,4.77-4.31,6.15-4,11.6-10.52,11.12-17.85-.26-4-2.28-7.81-2.4-11.84-.31-9.83,10.27-16.86,11.87-26.57C600.74,150.11,595.7,142.25,596.47,134.22Z" transform="translate(-62.73 -29.63)" fill="#865a61"/>
    <g id="Group_6" data-name="Group 6" opacity="0.1">
      <path id="Path_671" data-name="Path 671" d="M465.61,227.2c-.06-7.34-7.61-12.44-9.62-19.5a16.423,16.423,0,0,1-.57-3.41,22.459,22.459,0,0,0,.57,7.41c1.84,6.45,8.28,11.27,9.43,17.66a12,12,0,0,0,.19-2.16Z" transform="translate(-62.73 -29.63)"/>
      <path id="Path_672" data-name="Path 672" d="M496.83,251.09c-3.88.07-7.73-3.56-11.2-1.84-1,.51-1.8,1.43-2.84,1.91a7.73,7.73,0,0,1-4.55.14c-6.23-1.07-13.75-3.3-15.1-9.46a10.239,10.239,0,0,0,0,3.94c1.33,6.21,8.87,8.45,15.12,9.52a7.73,7.73,0,0,0,4.55-.14c1-.48,1.82-1.4,2.84-1.91,3.47-1.72,7.32,1.91,11.2,1.84,4.87-.09,7.61-5.84,7.73-10.71,0-1,0-2-.07-3C504,246,501.36,251,496.83,251.09Z" transform="translate(-62.73 -29.63)"/>
      <path id="Path_673" data-name="Path 673" d="M533.78,198.45c-1.86,6.89-7.79,11.93-14,15.42-5.63,3.16-12.3,6-14.63,12a19.13,19.13,0,0,0-.86,8.05,14.159,14.159,0,0,1,.86-4.05c2.33-6,9-8.85,14.63-12,6.23-3.49,12.16-8.53,14-15.42a25.281,25.281,0,0,0,.63-8A20.569,20.569,0,0,1,533.78,198.45Z" transform="translate(-62.73 -29.63)"/>
      <path id="Path_674" data-name="Path 674" d="M588.53,127.3c-2.41-.18-4.92-.74-7,.42-1.75,1-2.64,3-4,4.45-3.53,3.64-9.38,3.16-14.43,2.75h-.32c-17.17-1.34-31.44,13-30.46,30.19v.4a28.47,28.47,0,0,1,30.44-26.59h.32c5,.41,10.9.89,14.43-2.75,1.4-1.45,2.29-3.45,4-4.45,2-1.16,4.55-.6,7-.42a45.579,45.579,0,0,1,3.25,15c0-.65.05-1.3.05-2a45.684,45.684,0,0,0-3.281-17Z" transform="translate(-62.73 -29.63)"/>
      <path id="Path_675" data-name="Path 675" d="M462.33,158.44a30.89,30.89,0,0,0-1.83-12.8c-1.58-4.09-4.29-8.1-5-12.27-1.09,5.65,2.94,10.88,5,16.27A28.681,28.681,0,0,1,462.33,158.44Z" transform="translate(-62.73 -29.63)"/>
      <path id="Path_676" data-name="Path 676" d="M599.05,116.12a25.994,25.994,0,0,1-.56,3.83c-.75,3.45-2.18,6.76-2.52,10.27a19.681,19.681,0,0,0,0,3.76c.38-3.42,1.75-6.66,2.49-10a27.091,27.091,0,0,0,.59-7.86Z" transform="translate(-62.73 -29.63)"/>
      <path id="Path_677" data-name="Path 677" d="M598.93,154.07c-1.6,9.71-12.18,16.74-11.87,26.57a13.817,13.817,0,0,0,.14,1.59c1.26-8.61,10.27-15.26,11.73-24.16a18.5,18.5,0,0,0,.1-4.87A6.434,6.434,0,0,1,598.93,154.07Z" transform="translate(-62.73 -29.63)"/>
      <path id="Path_678" data-name="Path 678" d="M600.75,98.53a28,28,0,0,1-3.6,6,13.883,13.883,0,0,1,1,2.52,19.88,19.88,0,0,0,2.57-4.57,12,12,0,0,0,.46-5.8,10.571,10.571,0,0,1-.43,1.85Z" transform="translate(-62.73 -29.63)"/>
      <path id="Path_679" data-name="Path 679" d="M589.34,195.39c-.89,6.12-5.68,11.45-11,14.94-1.82,1.19-3.82,2.35-4.77,4.31a6.62,6.62,0,0,0-.27,4.68,4.375,4.375,0,0,1,.27-.68c.95-2,2.95-3.12,4.77-4.31,6.15-4,11.6-10.52,11.12-17.85C589.44,196.11,589.39,195.75,589.34,195.39Z" transform="translate(-62.73 -29.63)"/>
      <path id="Path_680" data-name="Path 680" d="M569.34,244.47a2.14,2.14,0,0,1-1.29.44c-2.58.22-5.08-.79-7.47-1.79-4-1.66-8.36-3.68-10-7.67-.74-1.78-.84-3.76-1.41-5.61a26.45,26.45,0,0,0-2.75-5.47,81.809,81.809,0,0,1-7.66-17.49,26.918,26.918,0,0,1-.72-2.81c-.07.33-.13.67-.17,1a15.18,15.18,0,0,0,.89,5.8,81.809,81.809,0,0,0,7.66,17.49,26.454,26.454,0,0,1,2.75,5.47c.57,1.85.67,3.83,1.41,5.61,1.66,4,6,6,10,7.67,2.39,1,4.89,2,7.47,1.79a1.74,1.74,0,0,0,1.87-1.77,6.631,6.631,0,0,0-.3-3,1.211,1.211,0,0,1-.28.34Z" transform="translate(-62.73 -29.63)"/>
      <path id="Path_681" data-name="Path 681" d="M579.72,238.33a3.189,3.189,0,0,1-1.31.31,28.7,28.7,0,0,1-10.5-1.25,6.75,6.75,0,0,1,2.05,4.55,28.589,28.589,0,0,0,8.45.7,1.69,1.69,0,0,0,1.82-2.48C580.08,239.54,579.9,238.93,579.72,238.33Z" transform="translate(-62.73 -29.63)"/>
    </g>
    <path id="Path_682" data-name="Path 682" d="M440.17,260.37s-1,20.5,2,22S440.17,260.37,440.17,260.37Z" transform="translate(-62.73 -29.63)" opacity="0.1"/>
    <path id="Path_683" data-name="Path 683" d="M496.92,314.37c1,0,5,2,5.5,4.25S496.92,314.37,496.92,314.37Z" transform="translate(-62.73 -29.63)" opacity="0.1"/>
    <path id="Path_684" data-name="Path 684" d="M494.42,317.62c1,0,5,2,5.5,4.25S494.42,317.62,494.42,317.62Z" transform="translate(-62.73 -29.63)" opacity="0.1"/>
    <path id="Path_685" data-name="Path 685" d="M503.67,326.62c1,0,5,2,5.5,4.25S503.67,326.62,503.67,326.62Z" transform="translate(-62.73 -29.63)" opacity="0.1"/>
    <path id="Path_686" data-name="Path 686" d="M491.17,327s-13.58,13.59-14.42,16.5-26.5,3-26.5,3l-1.75-14s-.1-.37-.19-.93c7.09-1.82,30.08-10.31,43.76-7.3a3.09,3.09,0,0,1-.9,2.73Z" transform="translate(-62.73 -29.63)" opacity="0.1"/>
    <path id="Path_687" data-name="Path 687" d="M429.33,344.2s13.09-11.58,17.09-11.33,52.75-20.5,56,2.75-62.25,24.5-62.25,24.5l-10,3.75S421.83,345.7,429.33,344.2Z" transform="translate(-62.73 -29.63)" fill="#fdc2cc"/>
    <path id="Path_688" data-name="Path 688" d="M425.5,345.87s6-8.33,7.83,1.83,4.59,22.67,4.59,22.67L424.5,363.7Z" transform="translate(-62.73 -29.63)" fill="#d39999"/>
    <ellipse id="Ellipse_55" data-name="Ellipse 55" cx="44.79" cy="6.87" rx="44.79" ry="6.87" transform="translate(873.59 657.62)" fill="#ee7768" opacity="0.1"/>
    <ellipse id="Ellipse_56" data-name="Ellipse 56" cx="70" cy="10.74" rx="70" ry="10.74" transform="translate(721.95 777.79)" fill="#ee7768" opacity="0.1"/>
    <ellipse id="Ellipse_57" data-name="Ellipse 57" cx="92.59" cy="14.21" rx="92.59" ry="14.21" transform="translate(889.36 812.32)" fill="#ee7768" opacity="0.1"/>
    <ellipse id="Ellipse_58" data-name="Ellipse 58" cx="70" cy="10.74" rx="70" ry="10.74" transform="translate(0 667.8)" fill="#ee7768" opacity="0.1"/>
    <path id="Path_689" data-name="Path 689" d="M945.79,628.21s-6.33,29.5,21.85,33l1.75-3.28S947.54,637.39,945.79,628.21Z" transform="translate(-62.73 -29.63)" fill="#ee7768"/>
    <path id="Path_690" data-name="Path 690" d="M978.35,657.7l-6.55,1.39-.66.15s-17.48-14.2-17.26-45.89a79.566,79.566,0,0,0,8.35,13.22C969.16,635.73,977,648,978.35,657.7Z" transform="translate(-62.73 -29.63)" fill="#ee7768"/>
    <path id="Path_691" data-name="Path 691" d="M980.57,660.74a4.1,4.1,0,0,1-3.53.46c-16.83-3.93-11.14-58.77-11.14-58.77.93.44,2,7.41,5.82,16.42C978.51,634.67,986,656.77,980.57,660.74Z" transform="translate(-62.73 -29.63)" fill="#ee7768"/>
    <path id="Path_692" data-name="Path 692" d="M1017.89,628.21s1.1,29.5-27.09,33l-1.75-3.28S1016.15,637.39,1017.89,628.21Z" transform="translate(-62.73 -29.63)" fill="#ee7768"/>
    <path id="Path_693" data-name="Path 693" d="M1009.81,613.35c.21,31.69-22.5,45.89-22.5,45.89l-.66-.15-6.55-1.39c1.29-9.73,9.19-22,16.11-31.13A70.9,70.9,0,0,1,1009.81,613.35Z" transform="translate(-62.73 -29.63)" fill="#ee7768"/>
    <path id="Path_694" data-name="Path 694" d="M986.55,657.87a10.392,10.392,0,0,1-3.75,2.87h0a6.691,6.691,0,0,1-1.37.46c-4.15,1-5.59-2-5.35-7.09.39-9,6.07-24.7,11.17-36.42,3.67-8.44,9.67-14.84,10.56-15.26C997.79,602.43,997.54,645.13,986.55,657.87Z" transform="translate(-62.73 -29.63)" fill="#ee7768"/>
    <path id="Path_695" data-name="Path 695" d="M981.84,583.2s-18.79,66.64-2.62,76.69S986,589.1,981.84,583.2Z" transform="translate(-62.73 -29.63)" fill="#ee7768"/>
    <path id="Path_696" data-name="Path 696" d="M945.79,628.21s-6.33,29.5,21.85,33l1.75-3.28S947.54,637.39,945.79,628.21Z" transform="translate(-62.73 -29.63)" opacity="0.1"/>
    <path id="Path_697" data-name="Path 697" d="M978.35,657.7l-6.55,1.39-.66.15s-17.48-14.2-17.26-45.89a79.566,79.566,0,0,0,8.35,13.22C969.16,635.73,977,648,978.35,657.7Z" transform="translate(-62.73 -29.63)" opacity="0.1"/>
    <path id="Path_698" data-name="Path 698" d="M980.57,660.74a4.1,4.1,0,0,1-3.53.46c-16.83-3.93-11.14-58.77-11.14-58.77.93.44,2,7.41,5.82,16.42C978.51,634.67,986,656.77,980.57,660.74Z" transform="translate(-62.73 -29.63)" opacity="0.1"/>
    <path id="Path_699" data-name="Path 699" d="M1017.89,628.21s1.1,29.5-27.09,33l-1.75-3.28S1016.15,637.39,1017.89,628.21Z" transform="translate(-62.73 -29.63)" opacity="0.1"/>
    <path id="Path_700" data-name="Path 700" d="M1009.81,613.35c.21,31.69-22.5,45.89-22.5,45.89l-.66-.15-6.55-1.39c1.29-9.73,9.19-22,16.11-31.13A70.9,70.9,0,0,1,1009.81,613.35Z" transform="translate(-62.73 -29.63)" opacity="0.1"/>
    <path id="Path_701" data-name="Path 701" d="M986.55,657.87a10.392,10.392,0,0,1-3.75,2.87h0a6.691,6.691,0,0,1-1.37.46c-4.15,1-5.59-2-5.35-7.09.39-9,6.07-24.7,11.17-36.42,3.67-8.44,9.67-14.84,10.56-15.26C997.79,602.43,997.54,645.13,986.55,657.87Z" transform="translate(-62.73 -29.63)" opacity="0.1"/>
    <path id="Path_702" data-name="Path 702" d="M981.84,583.2s-18.79,66.64-2.62,76.69S986,589.1,981.84,583.2Z" transform="translate(-62.73 -29.63)" opacity="0.1"/>
    <path id="Path_703" data-name="Path 703" d="M945.79,628.21s-3.71,29.5,24.47,33l1.75-3.28S947.54,637.39,945.79,628.21Z" transform="translate(-62.73 -29.63)" fill="#ee7768"/>
    <path id="Path_704" data-name="Path 704" d="M981,657.7l-6.55,1.39-.66.15s-20.1-14.2-19.88-45.89c0,0,5.15,5.52,11,13.22C971.79,635.73,979.66,648,981,657.7Z" transform="translate(-62.73 -29.63)" fill="#ee7768"/>
    <path id="Path_705" data-name="Path 705" d="M981,657.7l-6.55,1.39c-6.21-5.45-8.68-19.69-9.57-32.52C971.79,635.73,979.66,648,981,657.7Z" transform="translate(-62.73 -29.63)" opacity="0.1"/>
    <path id="Path_706" data-name="Path 706" d="M983.19,660.74a4.1,4.1,0,0,1-3.53.46c-16.83-3.93-13.76-58.77-13.76-58.77.93.44,4.57,7.41,8.44,16.42C981.13,634.67,988.59,656.77,983.19,660.74Z" transform="translate(-62.73 -29.63)" fill="#ee7768"/>
    <path id="Path_707" data-name="Path 707" d="M1017.89,628.21s3.72,29.5-24.47,33l-1.74-3.28S1016.15,637.39,1017.89,628.21Z" transform="translate(-62.73 -29.63)" fill="#ee7768"/>
    <path id="Path_708" data-name="Path 708" d="M1009.81,613.35c.21,31.69-19.88,45.89-19.88,45.89l-.66-.15-6.55-1.39c1.3-9.73,9.19-22,16.11-31.13C1004.66,618.87,1009.81,613.35,1009.81,613.35Z" transform="translate(-62.73 -29.63)" fill="#ee7768"/>
    <path id="Path_709" data-name="Path 709" d="M998.83,626.57c-.84,12-3,25.14-8.35,31.3a9.989,9.989,0,0,1-1.21,1.22l-6.55-1.39C984,648,991.91,635.73,998.83,626.57Z" transform="translate(-62.73 -29.63)" opacity="0.1"/>
    <path id="Path_710" data-name="Path 710" d="M989.17,657.87a10.309,10.309,0,0,1-3.75,2.87h0a6.991,6.991,0,0,1-1.38.46c-4.14,1-5.59-2-5.35-7.09.39-9,6.07-24.7,11.17-36.42,3.67-8.44,7-14.84,7.94-15.26C997.79,602.43,1000.17,645.13,989.17,657.87Z" transform="translate(-62.73 -29.63)" fill="#ee7768"/>
    <path id="Path_711" data-name="Path 711" d="M983.19,660.74a4.61,4.61,0,0,1-2.66-.85c-7.92-4.93-8.08-23.44-6.19-41C981.13,634.67,988.59,656.77,983.19,660.74Z" transform="translate(-62.73 -29.63)" opacity="0.1"/>
    <path id="Path_712" data-name="Path 712" d="M989.17,657.87c-.91,2-2.14,3-3.75,2.87h0a5.25,5.25,0,0,1-2.26-.85,12,12,0,0,1-4.47-5.78c.39-9,6.07-24.7,11.17-36.42C991.67,634,992.27,651.2,989.17,657.87Z" transform="translate(-62.73 -29.63)" opacity="0.1"/>
    <path id="Path_713" data-name="Path 713" d="M981.84,583.2s-16.16,66.64,0,76.69S986,589.1,981.84,583.2Z" transform="translate(-62.73 -29.63)" fill="#ee7768"/>
    <path id="Path_714" data-name="Path 714" d="M950.14,626.99H882.85v11.14h10.26l.26,1.31,4.11,21.63H936.6l4.11-21.63.25-1.31h9.18Z" fill="#4b4770"/>
    <path id="Path_715" data-name="Path 715" d="M950.14,626.99H882.85v11.14h10.26l.26,1.31,4.11,21.63H936.6l4.11-21.63.25-1.31h9.18Z" opacity="0.1"/>
    <path id="Path_716" data-name="Path 716" d="M944.46,633.54l-1.12,5.9-4.12,21.63H900.1l-4.11-21.63-1.13-5.9Z" fill="#4b4770"/>
    <path id="Path_717" data-name="Path 717" d="M944.46,633.54l-1.12,5.9H895.99l-1.13-5.9Z" opacity="0.1"/>
    <rect id="Rectangle_17" data-name="Rectangle 17" width="67.29" height="11.14" transform="translate(885.47 626.99)" fill="#4b4770"/>
    <path id="Path_718" data-name="Path 718" d="M171.88,590.79a17.18,17.18,0,0,0-2.28,4.29c-.14.37-.28.8-.42,1.21a3.691,3.691,0,0,0-.79-.27,11.05,11.05,0,0,0-3.57-.31c0-.46.06-1,.07-1.47.15-5.27-.47-12.61-5.5-9.5-4.82,3-1.38,8,1.73,11.2.27.28.54.54.8.79-2.84,2-3.38,6.73-3.85,11.64s-4.64,10.28-7.41,13.34c-.28.31-.53.59-.78.85a10.1,10.1,0,0,0-8-2.07c-.11-.43-.23-.88-.37-1.36C139.22,611,134.58,597,128.64,594c.25-.31.51-.63.78-1,2.52-3.3,5.36-8.2,1.17-9.45s-4.57,4.25-4.34,8.37c0,.51.08,1,.12,1.46A6.14,6.14,0,0,0,122,595.5l-.65-.77c-3.4-4-9.63-10.36-11.52-5.55-1.75,4.47,3.73,10.29,7.59,13.66l.24.21c-2.59,10.52,8.72,19.09,14.81,22.83l.79.49c-8.4,9.89-13.59,28.45-13.59,28.45l23.53,4.2s15.59-13.46,13.59-26.09h.16c15.59-3.13,19.13-19.75,16.71-29.61l.27-.12a17.7,17.7,0,0,0,7.22-5.45C185.5,591.68,176.36,584.84,171.88,590.79Z" transform="translate(-62.73 -29.63)" fill="#ee7768"/>
    <path id="Path_719" data-name="Path 719" d="M171.88,590.79a17.18,17.18,0,0,0-2.28,4.29c-.14.37-.28.8-.42,1.21a3.691,3.691,0,0,0-.79-.27,11.05,11.05,0,0,0-3.57-.31c0-.46.06-1,.07-1.47.15-5.27-.47-12.61-5.5-9.5-4.82,3-1.38,8,1.73,11.2.27.28.54.54.8.79-2.84,2-3.38,6.73-3.85,11.64s-4.64,10.28-7.41,13.34c-.28.31-.53.59-.78.85a10.1,10.1,0,0,0-8-2.07c-.11-.43-.23-.88-.37-1.36C139.22,611,134.58,597,128.64,594c.25-.31.51-.63.78-1,2.52-3.3,5.36-8.2,1.17-9.45s-4.57,4.25-4.34,8.37c0,.51.08,1,.12,1.46A6.14,6.14,0,0,0,122,595.5l-.65-.77c-3.4-4-9.63-10.36-11.52-5.55-1.75,4.47,3.73,10.29,7.59,13.66l.24.21c-2.59,10.52,8.72,19.09,14.81,22.83l.79.49c-8.4,9.89-13.59,28.45-13.59,28.45l23.53,4.2s15.59-13.46,13.59-26.09h.16c15.59-3.13,19.13-19.75,16.71-29.61l.27-.12a17.7,17.7,0,0,0,7.22-5.45C185.5,591.68,176.36,584.84,171.88,590.79Z" transform="translate(-62.73 -29.63)" opacity="0.1"/>
    <path id="Path_720" data-name="Path 720" d="M125.06,597.57l-2.75,8s-1.53-1.08-3.46-2.78c-3.86-3.37-9.34-9.19-7.59-13.66,1.89-4.81,8.12,1.54,11.52,5.55C124.15,596.33,125.06,597.57,125.06,597.57Z" transform="translate(-62.73 -29.63)" fill="#ee7768"/>
    <path id="Path_721" data-name="Path 721" d="M130.86,593a38.89,38.89,0,0,1-2.68,3.15,42.215,42.215,0,0,1-.49-4.23c-.23-4.12.21-9.59,4.34-8.37S133.38,589.68,130.86,593Z" transform="translate(-62.73 -29.63)" fill="#ee7768"/>
    <path id="Path_722" data-name="Path 722" d="M166.33,594.24c-.08,2.65-.34,4.77-.34,4.77a33.411,33.411,0,0,1-3.43-3.07c-3.11-3.22-6.55-8.2-1.73-11.2C165.86,581.63,166.48,589,166.33,594.24Z" transform="translate(-62.73 -29.63)" fill="#ee7768"/>
    <path id="Path_723" data-name="Path 723" d="M182.58,597.72a17.7,17.7,0,0,1-7.22,5.45,19.38,19.38,0,0,1-2.42.88l-3.24-4.55a33.047,33.047,0,0,1,1.34-4.42,17.18,17.18,0,0,1,2.28-4.29C177.8,584.84,186.94,591.68,182.58,597.72Z" transform="translate(-62.73 -29.63)" fill="#ee7768"/>
    <path id="Path_724" data-name="Path 724" d="M122.78,594.73c1.37,1.6,2.28,2.84,2.28,2.84l-2.75,8s-1.53-1.08-3.46-2.78a15.7,15.7,0,0,1,3.1-7.07C122.22,595.4,122.51,595.05,122.78,594.73Z" transform="translate(-62.73 -29.63)" opacity="0.1"/>
    <path id="Path_725" data-name="Path 725" d="M130.86,593a38.89,38.89,0,0,1-2.68,3.15,42.215,42.215,0,0,1-.49-4.23A5.46,5.46,0,0,1,130.86,593Z" transform="translate(-62.73 -29.63)" opacity="0.1"/>
    <path id="Path_726" data-name="Path 726" d="M144.39,624.93l-6.85,3s-1.49-.72-3.64-2.06c-7.19-4.42-21.64-15.55-12-28.67s17.77,10.41,21,21.92C143.87,622.57,144.39,624.93,144.39,624.93Z" transform="translate(-62.73 -29.63)" fill="#ee7768"/>
    <path id="Path_727" data-name="Path 727" d="M162.56,595.94a5.64,5.64,0,0,1,3.77-1.7c-.08,2.65-.34,4.77-.34,4.77a33.411,33.411,0,0,1-3.43-3.07Z" transform="translate(-62.73 -29.63)" opacity="0.1"/>
    <path id="Path_728" data-name="Path 728" d="M175.36,603.17a19.38,19.38,0,0,1-2.42.88l-3.24-4.55a33.047,33.047,0,0,1,1.34-4.42C173.13,596.3,174.67,599.34,175.36,603.17Z" transform="translate(-62.73 -29.63)" opacity="0.1"/>
    <path id="Path_729" data-name="Path 729" d="M158.38,632.9l-1.15.2c-22.93,3.48-7.56-8.89-7.56-8.89s1-1,2.43-2.5c2.77-3.06,6.93-8.4,7.41-13.34.72-7.43,1.55-14.4,10.32-12.35C178.44,598,180.09,628.55,158.38,632.9Z" transform="translate(-62.73 -29.63)" fill="#ee7768"/>
    <rect id="Rectangle_18" data-name="Rectangle 18" width="43.81" height="11.52" transform="translate(51.41 660.36)" fill="#d4dfec"/>
    <rect id="Rectangle_19" data-name="Rectangle 19" width="57.24" height="40.2" transform="translate(44.45 622.91)" fill="#d4dfec"/>
    <rect id="Rectangle_20" data-name="Rectangle 20" width="43.81" height="11.52" transform="translate(51.41 660.36)" opacity="0.1"/>
    <rect id="Rectangle_21" data-name="Rectangle 21" width="57.24" height="40.2" transform="translate(44.45 622.91)" opacity="0.1"/>
    <rect id="Rectangle_22" data-name="Rectangle 22" width="43.81" height="11.52" transform="translate(54.29 660.36)" fill="#d4dfec"/>
    <path id="Path_730" data-name="Path 730" d="M142.9,619.13c1,3.44,1.49,5.8,1.49,5.8l-6.85,3s-1.49-.72-3.64-2.06C136.58,622.49,139.6,619.92,142.9,619.13Z" transform="translate(-62.73 -29.63)" opacity="0.1"/>
    <path id="Path_731" data-name="Path 731" d="M158.38,632.9l-1.15.2c-22.93,3.48-7.56-8.89-7.56-8.89s1-1,2.43-2.5C156.38,625.13,158.15,629,158.38,632.9Z" transform="translate(-62.73 -29.63)" opacity="0.1"/>
    <path id="Path_732" data-name="Path 732" d="M121.1,654.82s12.84-46,30.85-31.8-7.32,36-7.32,36Z" transform="translate(-62.73 -29.63)" fill="#ee7768"/>
    <circle id="Ellipse_59" data-name="Ellipse 59" cx="1.44" cy="1.44" r="1.44" transform="translate(63.41 573.35)" opacity="0.1"/>
    <circle id="Ellipse_60" data-name="Ellipse 60" cx="1.44" cy="1.44" r="1.44" transform="translate(63.29 580.07)" opacity="0.1"/>
    <circle id="Ellipse_61" data-name="Ellipse 61" cx="1.44" cy="1.44" r="1.44" transform="translate(105.06 574.67)" opacity="0.1"/>
    <circle id="Ellipse_62" data-name="Ellipse 62" cx="1.44" cy="1.44" r="1.44" transform="translate(71.45 609.11)" opacity="0.1"/>
    <circle id="Ellipse_63" data-name="Ellipse 63" cx="1.44" cy="1.44" r="1.44" transform="translate(102.06 585.83)" opacity="0.1"/>
    <circle id="Ellipse_64" data-name="Ellipse 64" cx="1.44" cy="1.44" r="1.44" transform="translate(87.18 600.71)" opacity="0.1"/>
    <circle id="Ellipse_65" data-name="Ellipse 65" cx="1.44" cy="1.44" r="1.44" transform="translate(68.33 576.23)" opacity="0.1"/>
    <circle id="Ellipse_66" data-name="Ellipse 66" cx="1.44" cy="1.44" r="1.44" transform="translate(101.1 578.99)" opacity="0.1"/>
    <circle id="Ellipse_67" data-name="Ellipse 67" cx="1.44" cy="1.44" r="1.44" transform="translate(96.18 590.15)" opacity="0.1"/>
    <circle id="Ellipse_68" data-name="Ellipse 68" cx="1.44" cy="1.44" r="1.44" transform="translate(81.06 608.03)" opacity="0.1"/>
    <circle id="Ellipse_69" data-name="Ellipse 69" cx="1.44" cy="1.44" r="1.44" transform="translate(77.94 600.95)" opacity="0.1"/>
    <circle id="Ellipse_70" data-name="Ellipse 70" cx="1.44" cy="1.44" r="1.44" transform="translate(70.49 584.99)" opacity="0.1"/>
    <rect id="Rectangle_23" data-name="Rectangle 23" width="43.81" height="4.21" transform="translate(54.29 660.36)" opacity="0.1"/>
    <rect id="Rectangle_24" data-name="Rectangle 24" width="57.24" height="40.2" transform="translate(47.33 622.91)" fill="#d4dfec"/>
    <circle id="Ellipse_71" data-name="Ellipse 71" cx="1.44" cy="1.44" r="1.44" transform="translate(82.98 614.51)" opacity="0.1"/>
    <circle id="Ellipse_72" data-name="Ellipse 72" cx="1.44" cy="1.44" r="1.44" transform="translate(74.34 616.31)" opacity="0.1"/>
  </g>
</svg>
